# xmcd
#
# Track frame offsets: 
#        150
#        13632
#        28662
#        42082
#        56260
#        75377
#        86817
#        104150
#        114375
#        130007
#
# Disc length: 1924 seconds
#
# Revision: 1
# Processed by: cddbd v1.4PL0 Copyright (c) Steve Scherf et al.
# Submitted via: ExactAudioCopy v0.90b3
#
DISCID=7407820a
DTITLE=Marty Stuart - Let There Be Country
DYEAR=1900
DGENRE=Country
TTITLE0=Let There Be Country
TTITLE1=Mirrors Don't Lie
TTITLE2=Matches
TTITLE3=Last Train Done Gone Down
TTITLE4=Be Careful Who You Love (Arthur's Song)
TTITLE5=Old Hat
TTITLE6=Get Down On Your Knees And Pray
TTITLE7=I'm A One Woman Man
TTITLE8=Stone Blind
TTITLE9=I'll Love You Forever (If I Want To)
EXTD=
EXTT0=
EXTT1=
EXTT2=
EXTT3=
EXTT4=
EXTT5=
EXTT6=
EXTT7=
EXTT8=
EXTT9=
PLAYORDER=
